P2
# Created by Python3
10 20
255
220  70  70  70  70  70  70  70  70 220 
220  0   0   0   0   0   0   0   0  220 
220  0   0   0   0   0   0   0   0  220 
220  78  78  78  0   0   78  78  78 220 
220  0   0   0   0   0   0   0   0  220 
220  0  255  0   0   0   0   65  0  220 
220  0   0   0   0   0   0   0   0  220 
220  0   0   0   0   0   0   0   0  220 
220  0   0   0   0   0   0   0   0  220 
220  0   0   0  198 198  0   0   0  220 
220  0   0   0   0   0   0   0   0  220 
220  0   0   0   0   0   0   0   0  220 
220  0   0   0   0   0   0   0   0  220 
220  0   65  0   0   0   0  255  0  220 
220  0   65  65  65 255 255 255  0  220 
220  0   0   0   0   0   0   0   0  220 
220  0   0   0   0   0   0   0   0  220 
220  0   0   0   0   0   0   0   0  220 
220  0   0   0   0   0   0   0   0  220 
220  70  70  70  70  70  70  70  70 220 



